<?xml version="1.0" encoding="UTF-8" standalone="no"?>
<!DOCTYPE svg PUBLIC "-//W3C//DTD SVG 1.1//EN"
 "http://www.w3.org/Graphics/SVG/1.1/DTD/svg11.dtd">
<!-- Generated by graphviz version 9.0.0 (20230911.1827)
 -->
<!-- Title: datapath Pages: 1 -->
<svg width="819pt" height="404pt"
 viewBox="0.00 0.00 818.89 404.00" xmlns="http://www.w3.org/2000/svg" xmlns:xlink="http://www.w3.org/1999/xlink">
<g id="graph0" class="graph" transform="scale(1 1) rotate(0) translate(4 400)">
<title>datapath</title>
<polygon fill="white" stroke="none" points="-4,4 -4,-400 814.89,-400 814.89,4 -4,4"/>
<!-- sensor -->
<g id="node1" class="node">
<title>sensor</title>
<ellipse fill="none" stroke="black" cx="371" cy="-378" rx="44.37" ry="18"/>
<text text-anchor="middle" x="371" y="-373.32" font-family="Times,serif" font-size="14.00">sensor</text>
</g>
<!-- INP -->
<g id="node2" class="node">
<title>INP</title>
<ellipse fill="none" stroke="black" cx="371" cy="-306" rx="30.16" ry="18"/>
<text text-anchor="middle" x="371" y="-301.32" font-family="Times,serif" font-size="14.00">INP</text>
</g>
<!-- sensor&#45;&gt;INP -->
<g id="edge1" class="edge">
<title>sensor&#45;&gt;INP</title>
<path fill="none" stroke="black" d="M371,-359.7C371,-352.41 371,-343.73 371,-335.54"/>
<polygon fill="black" stroke="black" points="374.5,-335.62 371,-325.62 367.5,-335.62 374.5,-335.62"/>
</g>
<!-- WDMA2 -->
<g id="node3" class="node">
<title>WDMA2</title>
<ellipse fill="none" stroke="black" cx="478" cy="-18" rx="52.26" ry="18"/>
<text text-anchor="middle" x="478" y="-13.32" font-family="Times,serif" font-size="14.00">WDMA2</text>
</g>
<!-- INP&#45;&gt;WDMA2 -->
<g id="edge2" class="edge">
<title>INP&#45;&gt;WDMA2</title>
<path fill="none" stroke="black" d="M388.89,-291.27C400.47,-281.49 415.02,-267.4 424,-252 462.63,-185.8 473.63,-93.94 476.76,-47.83"/>
<polygon fill="black" stroke="black" points="480.25,-48.06 477.35,-37.87 473.26,-47.64 480.25,-48.06"/>
</g>
<!-- HW2x2 -->
<g id="node4" class="node">
<title>HW2x2</title>
<ellipse fill="none" stroke="black" cx="371" cy="-162" rx="48.05" ry="18"/>
<text text-anchor="middle" x="371" y="-157.32" font-family="Times,serif" font-size="14.00">HW2x2</text>
</g>
<!-- INP&#45;&gt;HW2x2 -->
<g id="edge3" class="edge">
<title>INP&#45;&gt;HW2x2</title>
<path fill="none" stroke="black" d="M371,-287.59C371,-263.61 371,-220.14 371,-191.42"/>
<polygon fill="black" stroke="black" points="374.5,-191.62 371,-181.62 367.5,-191.62 374.5,-191.62"/>
</g>
<!-- CDM -->
<g id="node5" class="node">
<title>CDM</title>
<ellipse fill="none" stroke="black" cx="378" cy="-90" rx="36.48" ry="18"/>
<text text-anchor="middle" x="378" y="-85.33" font-family="Times,serif" font-size="14.00">CDM</text>
</g>
<!-- INP&#45;&gt;CDM -->
<g id="edge13" class="edge">
<title>INP&#45;&gt;CDM</title>
<path fill="none" stroke="black" d="M381.14,-288.81C394.95,-265.71 418.99,-221.49 428,-180 431.4,-164.36 433.91,-158.87 428,-144 423.37,-132.33 414.81,-121.74 406.06,-113.15"/>
<polygon fill="black" stroke="black" points="408.61,-110.73 398.87,-106.57 403.89,-115.9 408.61,-110.73"/>
</g>
<!-- HW5x5 -->
<g id="node7" class="node">
<title>HW5x5</title>
<ellipse fill="none" stroke="black" cx="61" cy="-234" rx="48.05" ry="18"/>
<text text-anchor="middle" x="61" y="-229.32" font-family="Times,serif" font-size="14.00">HW5x5</text>
</g>
<!-- INP&#45;&gt;HW5x5 -->
<g id="edge6" class="edge">
<title>INP&#45;&gt;HW5x5</title>
<path fill="none" stroke="black" d="M342.95,-298.66C290.89,-286.91 178.64,-261.56 112.55,-246.64"/>
<polygon fill="black" stroke="black" points="113.57,-243.28 103.04,-244.49 112.03,-250.11 113.57,-243.28"/>
</g>
<!-- HXCSC -->
<g id="node12" class="node">
<title>HXCSC</title>
<ellipse fill="none" stroke="black" cx="257" cy="-162" rx="48.05" ry="18"/>
<text text-anchor="middle" x="257" y="-157.32" font-family="Times,serif" font-size="14.00">HXCSC</text>
</g>
<!-- INP&#45;&gt;HXCSC -->
<g id="edge17" class="edge">
<title>INP&#45;&gt;HXCSC</title>
<path fill="none" stroke="black" d="M358.37,-289.26C338.8,-264.89 300.99,-217.79 277.49,-188.52"/>
<polygon fill="black" stroke="black" points="280.34,-186.47 271.35,-180.87 274.88,-190.86 280.34,-186.47"/>
</g>
<!-- HW2x2&#45;&gt;CDM -->
<g id="edge4" class="edge">
<title>HW2x2&#45;&gt;CDM</title>
<path fill="none" stroke="black" d="M372.73,-143.7C373.46,-136.41 374.33,-127.73 375.15,-119.54"/>
<polygon fill="black" stroke="black" points="378.63,-119.91 376.14,-109.61 371.66,-119.21 378.63,-119.91"/>
</g>
<!-- WDMA1 -->
<g id="node6" class="node">
<title>WDMA1</title>
<ellipse fill="none" stroke="black" cx="328" cy="-18" rx="52.26" ry="18"/>
<text text-anchor="middle" x="328" y="-13.32" font-family="Times,serif" font-size="14.00">WDMA1</text>
</g>
<!-- HW2x2&#45;&gt;WDMA1 -->
<g id="edge12" class="edge">
<title>HW2x2&#45;&gt;WDMA1</title>
<path fill="none" stroke="black" d="M355.62,-144.75C347.32,-134.92 337.82,-121.67 333,-108 326.19,-88.67 325.08,-65.52 325.61,-47.68"/>
<polygon fill="black" stroke="black" points="329.1,-47.96 326.1,-37.8 322.11,-47.61 329.1,-47.96"/>
</g>
<!-- CDM&#45;&gt;WDMA1 -->
<g id="edge5" class="edge">
<title>CDM&#45;&gt;WDMA1</title>
<path fill="none" stroke="black" d="M366.41,-72.76C360.5,-64.49 353.17,-54.23 346.5,-44.9"/>
<polygon fill="black" stroke="black" points="349.42,-42.97 340.76,-36.87 343.73,-47.04 349.42,-42.97"/>
</g>
<!-- WDMA3 -->
<g id="node8" class="node">
<title>WDMA3</title>
<ellipse fill="none" stroke="black" cx="116" cy="-18" rx="52.26" ry="18"/>
<text text-anchor="middle" x="116" y="-13.32" font-family="Times,serif" font-size="14.00">WDMA3</text>
</g>
<!-- HW5x5&#45;&gt;WDMA3 -->
<g id="edge7" class="edge">
<title>HW5x5&#45;&gt;WDMA3</title>
<path fill="none" stroke="black" d="M40.38,-217.25C29.72,-207.77 17.76,-194.7 12,-180 6.17,-165.1 6.68,-159.09 12,-144 26.62,-102.56 61.91,-65.3 87.33,-42.46"/>
<polygon fill="black" stroke="black" points="89.49,-45.22 94.72,-36 84.89,-39.95 89.49,-45.22"/>
</g>
<!-- JPEG -->
<g id="node9" class="node">
<title>JPEG</title>
<ellipse fill="none" stroke="black" cx="116" cy="-90" rx="37" ry="18"/>
<text text-anchor="middle" x="116" y="-85.33" font-family="Times,serif" font-size="14.00">JPEG</text>
</g>
<!-- HW5x5&#45;&gt;JPEG -->
<g id="edge8" class="edge">
<title>HW5x5&#45;&gt;JPEG</title>
<path fill="none" stroke="black" d="M44.04,-216.75C27.15,-198.52 5.65,-168.32 20,-144 31.6,-124.36 53.37,-111.49 73.25,-103.36"/>
<polygon fill="black" stroke="black" points="74.47,-106.64 82.6,-99.85 72.01,-100.09 74.47,-106.64"/>
</g>
<!-- RGB2YUV -->
<g id="node19" class="node">
<title>RGB2YUV</title>
<ellipse fill="none" stroke="black" cx="91" cy="-162" rx="61.73" ry="18"/>
<text text-anchor="middle" x="91" y="-157.32" font-family="Times,serif" font-size="14.00">RGB2YUV</text>
</g>
<!-- HW5x5&#45;&gt;RGB2YUV -->
<g id="edge25" class="edge">
<title>HW5x5&#45;&gt;RGB2YUV</title>
<path fill="none" stroke="black" d="M68.26,-216.05C71.53,-208.43 75.47,-199.23 79.15,-190.65"/>
<polygon fill="black" stroke="black" points="82.28,-192.24 83,-181.67 75.85,-189.48 82.28,-192.24"/>
</g>
<!-- JPEG&#45;&gt;WDMA2 -->
<g id="edge9" class="edge">
<title>JPEG&#45;&gt;WDMA2</title>
<path fill="none" stroke="black" d="M150.06,-82.41C212.5,-70.34 345.88,-44.55 421.89,-29.85"/>
<polygon fill="black" stroke="black" points="422.49,-33.3 431.64,-27.96 421.16,-26.43 422.49,-33.3"/>
</g>
<!-- JPEG&#45;&gt;WDMA3 -->
<g id="edge11" class="edge">
<title>JPEG&#45;&gt;WDMA3</title>
<path fill="none" stroke="black" d="M116,-71.7C116,-64.41 116,-55.73 116,-47.54"/>
<polygon fill="black" stroke="black" points="119.5,-47.62 116,-37.62 112.5,-47.62 119.5,-47.62"/>
</g>
<!-- RDMA -->
<g id="node10" class="node">
<title>RDMA</title>
<ellipse fill="none" stroke="black" cx="72" cy="-306" rx="43.32" ry="18"/>
<text text-anchor="middle" x="72" y="-301.32" font-family="Times,serif" font-size="14.00">RDMA</text>
</g>
<!-- RDMA&#45;&gt;JPEG -->
<g id="edge10" class="edge">
<title>RDMA&#45;&gt;JPEG</title>
<path fill="none" stroke="black" d="M44.66,-291.62C29.68,-282.67 12.48,-269.35 4,-252 -5.59,-232.35 5.13,-153.94 12,-144 26.2,-123.47 50.82,-110.42 72.54,-102.42"/>
<polygon fill="black" stroke="black" points="73.46,-105.8 81.8,-99.26 71.21,-99.17 73.46,-105.8"/>
</g>
<!-- TPG -->
<g id="node11" class="node">
<title>TPG</title>
<ellipse fill="none" stroke="black" cx="181" cy="-234" rx="32.27" ry="18"/>
<text text-anchor="middle" x="181" y="-229.32" font-family="Times,serif" font-size="14.00">TPG</text>
</g>
<!-- RDMA&#45;&gt;TPG -->
<g id="edge14" class="edge">
<title>RDMA&#45;&gt;TPG</title>
<path fill="none" stroke="black" d="M94.85,-290.33C111.18,-279.84 133.31,-265.63 151.05,-254.23"/>
<polygon fill="black" stroke="black" points="152.6,-257.4 159.12,-249.05 148.81,-251.51 152.6,-257.4"/>
</g>
<!-- TPG&#45;&gt;HW2x2 -->
<g id="edge16" class="edge">
<title>TPG&#45;&gt;HW2x2</title>
<path fill="none" stroke="black" d="M207.42,-223.27C238.33,-211.88 289.96,-192.86 326.96,-179.23"/>
<polygon fill="black" stroke="black" points="327.86,-182.63 336.03,-175.88 325.44,-176.06 327.86,-182.63"/>
</g>
<!-- TPG&#45;&gt;JPEG -->
<g id="edge15" class="edge">
<title>TPG&#45;&gt;JPEG</title>
<path fill="none" stroke="black" d="M179.88,-215.76C178.11,-197.19 173.57,-167.19 162,-144 156.62,-133.21 148.52,-122.83 140.61,-114.17"/>
<polygon fill="black" stroke="black" points="143.38,-112 133.92,-107.22 138.33,-116.85 143.38,-112"/>
</g>
<!-- HXCSC&#45;&gt;CDM -->
<g id="edge18" class="edge">
<title>HXCSC&#45;&gt;CDM</title>
<path fill="none" stroke="black" d="M282.37,-146.33C300.66,-135.74 325.51,-121.36 345.3,-109.92"/>
<polygon fill="black" stroke="black" points="346.91,-113.03 353.81,-104.99 343.4,-106.97 346.91,-113.03"/>
</g>
<!-- HXCSC&#45;&gt;WDMA3 -->
<g id="edge19" class="edge">
<title>HXCSC&#45;&gt;WDMA3</title>
<path fill="none" stroke="black" d="M240.83,-144.71C216.21,-119.91 169.15,-72.52 140.37,-43.54"/>
<polygon fill="black" stroke="black" points="143.02,-41.24 133.49,-36.61 138.05,-46.17 143.02,-41.24"/>
</g>
<!-- HXCSC&#45;&gt;JPEG -->
<g id="edge20" class="edge">
<title>HXCSC&#45;&gt;JPEG</title>
<path fill="none" stroke="black" d="M228.81,-147C206.55,-135.95 175.35,-120.46 151.41,-108.58"/>
<polygon fill="black" stroke="black" points="153.18,-105.55 142.66,-104.24 150.06,-111.82 153.18,-105.55"/>
</g>
<!-- RS_RDMA -->
<g id="node13" class="node">
<title>RS_RDMA</title>
<ellipse fill="none" stroke="black" cx="578" cy="-378" rx="62.26" ry="18"/>
<text text-anchor="middle" x="578" y="-373.32" font-family="Times,serif" font-size="14.00">RS_RDMA</text>
</g>
<!-- RS -->
<g id="node14" class="node">
<title>RS</title>
<ellipse fill="none" stroke="black" cx="578" cy="-306" rx="27" ry="18"/>
<text text-anchor="middle" x="578" y="-301.32" font-family="Times,serif" font-size="14.00">RS</text>
</g>
<!-- RS_RDMA&#45;&gt;RS -->
<g id="edge21" class="edge">
<title>RS_RDMA&#45;&gt;RS</title>
<path fill="none" stroke="black" d="M578,-359.7C578,-352.41 578,-343.73 578,-335.54"/>
<polygon fill="black" stroke="black" points="581.5,-335.62 578,-325.62 574.5,-335.62 581.5,-335.62"/>
</g>
<!-- RS_WDMA -->
<g id="node15" class="node">
<title>RS_WDMA</title>
<ellipse fill="none" stroke="black" cx="578" cy="-234" rx="64.89" ry="18"/>
<text text-anchor="middle" x="578" y="-229.32" font-family="Times,serif" font-size="14.00">RS_WDMA</text>
</g>
<!-- RS&#45;&gt;RS_WDMA -->
<g id="edge22" class="edge">
<title>RS&#45;&gt;RS_WDMA</title>
<path fill="none" stroke="black" d="M578,-287.7C578,-280.41 578,-271.73 578,-263.54"/>
<polygon fill="black" stroke="black" points="581.5,-263.62 578,-253.62 574.5,-263.62 581.5,-263.62"/>
</g>
<!-- HOG_RDMA -->
<g id="node16" class="node">
<title>HOG_RDMA</title>
<ellipse fill="none" stroke="black" cx="736" cy="-378" rx="72.25" ry="18"/>
<text text-anchor="middle" x="736" y="-373.32" font-family="Times,serif" font-size="14.00">HOG_RDMA</text>
</g>
<!-- HOG -->
<g id="node17" class="node">
<title>HOG</title>
<ellipse fill="none" stroke="black" cx="736" cy="-306" rx="35.42" ry="18"/>
<text text-anchor="middle" x="736" y="-301.32" font-family="Times,serif" font-size="14.00">HOG</text>
</g>
<!-- HOG_RDMA&#45;&gt;HOG -->
<g id="edge23" class="edge">
<title>HOG_RDMA&#45;&gt;HOG</title>
<path fill="none" stroke="black" d="M736,-359.7C736,-352.41 736,-343.73 736,-335.54"/>
<polygon fill="black" stroke="black" points="739.5,-335.62 736,-325.62 732.5,-335.62 739.5,-335.62"/>
</g>
<!-- HOG_WDMA -->
<g id="node18" class="node">
<title>HOG_WDMA</title>
<ellipse fill="none" stroke="black" cx="736" cy="-234" rx="74.88" ry="18"/>
<text text-anchor="middle" x="736" y="-229.32" font-family="Times,serif" font-size="14.00">HOG_WDMA</text>
</g>
<!-- HOG&#45;&gt;HOG_WDMA -->
<g id="edge24" class="edge">
<title>HOG&#45;&gt;HOG_WDMA</title>
<path fill="none" stroke="black" d="M736,-287.7C736,-280.41 736,-271.73 736,-263.54"/>
<polygon fill="black" stroke="black" points="739.5,-263.62 736,-253.62 732.5,-263.62 739.5,-263.62"/>
</g>
<!-- RGB2YUV&#45;&gt;JPEG -->
<g id="edge26" class="edge">
<title>RGB2YUV&#45;&gt;JPEG</title>
<path fill="none" stroke="black" d="M97.18,-143.7C99.88,-136.15 103.1,-127.12 106.12,-118.68"/>
<polygon fill="black" stroke="black" points="109.32,-120.12 109.38,-109.53 102.73,-117.77 109.32,-120.12"/>
</g>
</g>
</svg>
